<svg version="1.2" xmlns="http://www.w3.org/2000/svg" viewBox="0 0 14 14" width="14" height="14">
	<title>-e-icon-questionmark</title>
	<style>
		.s0 { fill: #626262 } 
	</style>
	<path id="-e-icon-questionmark" fill-rule="evenodd" class="s0" d="m7 13.6c-3.6 0-6.5-2.9-6.5-6.5 0-3.6 2.9-6.5 6.5-6.5 3.6 0 6.5 2.9 6.5 6.5 0 3.6-2.9 6.5-6.5 6.5zm0-11.7c-2.9 0-5.2 2.4-5.2 5.2 0 2.8 2.3 5.2 5.2 5.2 2.8 0 5.2-2.4 5.2-5.2 0-2.8-2.4-5.2-5.2-5.2zm-0.8 6.1v-0.4q0-0.3 0.1-0.5 0.2-0.2 0.3-0.3 0.2-0.2 0.4-0.3 0.2-0.2 0.3-0.4 0.2-0.1 0.2-0.3 0-0.2-0.2-0.3-0.1-0.1-0.3-0.1-0.2 0-0.4 0.1-0.1 0.1-0.1 0.4h-1.5q0-0.5 0.2-0.9 0.3-0.4 0.7-0.6 0.5-0.3 1.1-0.3 0.7 0 1.1 0.2 0.5 0.3 0.7 0.6 0.2 0.4 0.2 0.8 0 0.4-0.1 0.6-0.1 0.3-0.2 0.5-0.2 0.2-0.4 0.3-0.2 0.2-0.3 0.3-0.1 0.1-0.2 0.2 0 0.1 0 0.2v0.2zm0.7 2.1q-0.2 0-0.4-0.2-0.2-0.1-0.3-0.3-0.2-0.2-0.2-0.4 0-0.4 0.3-0.6 0.2-0.3 0.6-0.3 0.4 0 0.6 0.3 0.3 0.2 0.3 0.6 0 0.2-0.1 0.4-0.2 0.2-0.3 0.3-0.2 0.2-0.5 0.2z"/>
</svg>