<svg version="1.2" xmlns="http://www.w3.org/2000/svg" viewBox="0 0 22 22" width="22" height="22"><path id="-e-icon-settings" fill-rule="evenodd" class="s0" d="m15.9 10h2.1v2h-2.1q-0.2 1-0.7 1.8l1.5 1.5-1.5 1.4-1.5-1.5q-0.7 0.5-1.7 0.7v2.1h-2v-2.1q-1-0.2-1.8-0.7l-1.5 1.5-1.4-1.4 1.5-1.5q-0.5-0.8-0.7-1.8h-2.1v-2h2.1q0.2-1 0.7-1.8l-1.5-1.5 1.4-1.4 1.5 1.5q0.8-0.5 1.8-0.7v-2.1h2v2.1q1 0.2 1.7 0.7l1.5-1.5 1.5 1.4-1.5 1.5q0.5 0.8 0.7 1.8zm-1.9 1c0-1.7-1.4-3-3-3-1.7 0-3 1.3-3 3 0 1.7 1.3 3 3 3 1.6 0 3-1.3 3-3zm8 0c0 6.1-5 11-11 11-6.1 0-11-4.9-11-11 0-6.1 4.9-11 11-11 6 0 11 4.9 11 11zm-2 0c0-5-4.1-9-9-9-5 0-9 4-9 9 0 4.9 4 9 9 9 4.9 0 9-4.1 9-9z"/></svg>